<?xml version="1.0" standalone="no"?>
<!DOCTYPE svg PUBLIC "-//W3C//DTD SVG 20010904//EN"
 "http://www.w3.org/TR/2001/REC-SVG-20010904/DTD/svg10.dtd">
<svg version="1.0" xmlns="http://www.w3.org/2000/svg"
 width="225.000000pt" height="225.000000pt" viewBox="0 0 225.000000 225.000000"
 preserveAspectRatio="xMidYMid meet">
<metadata>
Created by potrace 1.14, written by Peter Selinger 2001-2017
</metadata>
<g transform="translate(0.000000,225.000000) scale(0.100000,-0.100000)"
fill="#000000" stroke="none">
<path d="M282 2240 c-102 -21 -201 -104 -250 -208 l-27 -57 0 -850 0 -850 27
-57 c37 -79 98 -142 177 -181 l66 -32 850 0 850 0 57 27 c79 37 142 98 181
177 l32 66 0 850 0 850 -32 66 c-39 79 -102 140 -181 177 l-57 27 -825 2
c-454 0 -844 -3 -868 -7z m1382 -340 c48 -18 66 -64 66 -167 l0 -93 99 0 c83
0 102 -3 123 -20 58 -45 61 -129 7 -174 -28 -24 -38 -26 -129 -26 l-98 0 -4
-106 c-3 -105 -3 -106 -36 -135 -37 -33 -85 -38 -130 -15 -41 21 -52 51 -54
156 l-3 95 -100 5 c-106 5 -136 16 -154 57 -22 47 -13 93 23 129 l34 34 101 0
101 0 0 101 0 101 34 34 c36 36 71 43 120 24z m-683 -138 c41 -46 41 -107 0
-151 l-29 -31 -315 0 -315 0 -31 26 c-57 47 -50 136 13 175 29 18 51 19 339
17 l309 -3 29 -33z m-5 -286 c28 -28 34 -41 34 -78 0 -46 -19 -78 -57 -97 -15
-7 -122 -11 -327 -11 l-306 0 -30 28 c-41 36 -50 93 -20 140 11 18 30 37 43
42 12 5 159 9 326 9 l303 1 34 -34z m-523 -477 c12 -6 57 -45 99 -87 l77 -76
85 82 c97 93 135 108 192 77 32 -17 64 -67 64 -100 0 -30 -28 -70 -104 -145
l-76 -74 84 -86 c93 -94 107 -125 82 -183 -23 -56 -95 -83 -149 -56 -12 6 -57
45 -99 87 l-78 76 -88 -87 c-84 -82 -92 -87 -132 -87 -34 0 -48 6 -76 34 -64
64 -45 124 80 245 l55 55 -84 87 c-80 84 -85 91 -85 132 0 86 82 142 153 106z
m1483 -245 c85 -40 83 -158 -2 -199 -45 -21 -577 -22 -628 -1 -44 18 -66 52
-66 99 0 49 13 73 53 97 30 19 52 20 320 20 247 0 294 -2 323 -16z"/>
</g>
</svg>
